<?xml version="1.0" standalone="no"?>
<!DOCTYPE svg PUBLIC "-//W3C//DTD SVG 20010904//EN"
 "http://www.w3.org/TR/2001/REC-SVG-20010904/DTD/svg10.dtd">
<svg version="1.0" xmlns="http://www.w3.org/2000/svg"
 width="236.000000pt" height="214.000000pt" viewBox="0 0 236.000000 214.000000"
 preserveAspectRatio="xMidYMid meet">
<metadata>
Created by potrace 1.15, written by Peter Selinger 2001-2017
</metadata>
<g transform="translate(0.000000,214.000000) scale(0.100000,-0.100000)"
fill="#000000" stroke="none">
<path d="M1049 2047 c-58 -34 -124 -74 -146 -90 -114 -79 -112 -229 6 -410 23
-35 41 -66 41 -70 0 -4 -14 -14 -32 -23 -38 -19 -33 -24 -105 104 -72 128
-156 212 -213 212 -18 0 -10 -64 15 -120 19 -40 51 -79 117 -142 l92 -86 -19
-35 -18 -34 -91 91 c-141 142 -242 180 -341 128 -22 -11 -87 -68 -144 -125
l-104 -105 23 -119 c43 -226 60 -262 145 -302 49 -23 149 -28 214 -11 47 12
197 40 216 40 12 0 14 -7 9 -27 -4 -16 -12 -33 -18 -39 -6 -6 -63 -19 -126
-28 -141 -22 -259 -65 -295 -108 -35 -42 -22 -52 67 -52 83 0 159 20 267 70
41 19 76 32 79 29 3 -3 0 -23 -7 -46 -10 -32 -19 -43 -44 -52 -68 -23 -185
-88 -221 -122 -74 -70 -81 -150 -21 -260 19 -33 52 -98 75 -143 23 -45 45 -82
49 -82 4 0 61 -7 126 -15 154 -19 236 -19 283 1 90 37 127 114 120 250 -5 90
-3 94 51 94 l27 0 0 -137 c-1 -125 1 -143 23 -190 13 -29 28 -53 33 -53 5 0
21 26 35 57 31 67 34 138 13 245 -8 37 -11 70 -7 74 3 3 23 3 45 -1 l39 -6 7
-76 c12 -127 59 -223 128 -259 35 -18 127 -21 213 -5 33 5 83 11 110 12 28 2
55 4 61 6 7 3 27 39 45 81 18 42 47 104 65 137 43 81 55 131 45 178 -19 83
-95 150 -216 191 -37 13 -74 31 -81 41 -13 17 -20 75 -10 75 2 0 30 -13 62
-29 33 -16 83 -36 113 -45 68 -20 197 -30 236 -18 l30 9 -39 37 c-65 63 -144
90 -338 116 l-86 12 -7 35 c-3 19 -5 36 -3 38 2 2 50 -8 108 -21 153 -34 235
-40 303 -20 104 30 150 92 162 217 3 35 11 97 16 136 l10 73 -63 67 c-162 173
-185 188 -292 181 -107 -7 -194 -61 -282 -173 l-41 -54 -23 30 -22 31 24 26
c12 15 42 47 65 72 96 105 120 144 130 215 6 50 3 52 -49 30 -52 -21 -119
-102 -168 -202 -56 -116 -55 -116 -91 -97 -16 8 -29 18 -29 22 0 5 14 30 32
58 74 116 113 241 98 310 -9 39 -34 80 -64 106 -17 15 -306 161 -310 157 -1 0
-49 -29 -107 -62z m221 -319 c0 -7 7 -76 15 -153 19 -180 20 -171 -15 -183
-28 -10 -30 -9 -34 21 -3 18 -7 92 -11 166 -5 120 -3 135 12 147 23 17 33 17
33 2z m-141 -14 c2 -2 0 -75 -4 -163 -6 -142 -9 -161 -24 -161 -10 0 -26 6
-36 14 -17 12 -18 20 -6 132 19 194 19 196 44 188 12 -4 24 -8 26 -10z m71
-110 c3 -60 5 -136 5 -169 l0 -60 -30 3 c-16 2 -31 4 -32 5 -5 5 17 319 22
328 4 5 12 8 18 6 8 -2 14 -43 17 -113z m-186 -208 c37 -36 96 -56 168 -56 66
0 116 18 158 56 l38 35 46 -23 c25 -12 46 -27 46 -32 0 -29 -147 -89 -244
-101 -101 -13 -268 37 -320 94 -17 19 -17 20 21 40 21 11 42 20 46 21 4 0 23
-15 41 -34z m-97 -100 c96 -48 169 -66 261 -66 101 0 192 21 262 60 30 16 60
30 67 30 13 0 27 -43 42 -135 12 -72 67 -372 115 -620 19 -99 33 -181 32 -183
-2 -1 -28 7 -60 18 -147 50 -418 77 -611 60 -146 -12 -206 -24 -287 -56 -34
-13 -65 -21 -69 -17 -5 7 55 361 91 538 7 33 16 80 21 105 46 267 53 300 64
300 2 0 35 -15 72 -34z"/>
<path d="M865 1176 c-29 -21 -12 -32 80 -56 115 -29 118 -37 35 -82 -43 -24
-38 -56 12 -83 21 -11 38 -23 38 -26 0 -4 -14 -9 -32 -13 -17 -3 -40 -14 -50
-23 -27 -24 -49 -2 -25 25 20 22 22 43 5 60 -16 16 -110 16 -126 0 -17 -17
-15 -49 6 -64 16 -13 15 -15 -10 -35 -30 -22 -36 -44 -15 -52 8 -3 40 -8 71
-12 32 -4 60 -13 63 -20 6 -18 -11 -48 -54 -96 -37 -41 -30 -49 22 -29 30 11
61 40 100 93 26 35 48 46 59 29 9 -16 -41 -107 -80 -145 -21 -20 -58 -44 -82
-54 -30 -11 -39 -19 -30 -24 63 -40 178 53 257 209 23 45 58 60 46 20 -14 -49
-58 -163 -66 -172 -11 -12 -12 -26 -1 -26 11 0 66 52 95 91 15 20 35 58 43 84
15 41 18 45 31 32 10 -10 18 -46 22 -100 3 -47 10 -89 14 -93 17 -17 22 15 22
132 0 79 4 124 10 124 11 0 54 -120 79 -220 8 -36 19 -56 30 -58 14 -3 16 4
10 50 -3 29 -6 87 -7 128 -2 60 1 75 13 75 15 0 40 -60 82 -195 16 -52 28 -76
41 -78 14 -3 17 4 17 40 0 96 -42 231 -92 300 -11 15 -9 20 10 33 23 17 30 55
10 55 -7 0 -30 -5 -52 -11 -52 -14 -70 3 -27 26 38 19 71 50 71 66 0 11 -31 8
-97 -8 -37 -9 -29 29 10 47 17 8 32 20 32 25 0 6 -50 13 -117 16 -65 4 -129
10 -143 13 -19 5 -25 2 -25 -9 0 -10 22 -26 55 -41 39 -18 55 -31 55 -45 0
-15 -7 -19 -39 -19 -52 0 -71 -8 -71 -30 0 -19 36 -30 96 -30 28 0 36 -5 45
-27 15 -40 7 -56 -31 -64 -30 -7 -39 -4 -58 17 -19 19 -27 22 -42 14 -11 -6
-20 -17 -20 -25 0 -7 -5 -17 -10 -20 -15 -9 -40 14 -40 36 0 10 -13 28 -30 41
-39 28 -38 41 4 61 19 9 38 26 41 38 10 31 -31 64 -110 88 -95 29 -129 33
-150 17z"/>
</g>
</svg>
