<?xml version="1.0" encoding="utf-8"?>
<!-- Generator: Adobe Illustrator 23.0.1, SVG Export Plug-In . SVG Version: 6.00 Build 0)  -->
<svg version="1.1" id="Layer_1" xmlns="http://www.w3.org/2000/svg" xmlns:xlink="http://www.w3.org/1999/xlink" x="0px" y="0px"
	 viewBox="0 0 50 50" style="enable-background:new 0 0 50 50;" xml:space="preserve">
<g>
	<title>Code</title>
	<desc>Created with Sketch.</desc>
	<g>
		<g transform="translate(-69.000000, -1117.000000)">
			<path style="fill-rule:evenodd;clip-rule:evenodd;fill:#010101;" d="M114.2,1140.8l-9.7-11.1c-0.6-0.7-1.7-0.7-2.3,0
				c-0.6,0.7-0.6,1.8,0,2.4l8.7,9.9l-8.7,9.9c-0.6,0.7-0.6,1.8,0,2.4c0.6,0.7,1.7,0.7,2.3,0l9.7-11.1
				C114.8,1142.5,114.8,1141.5,114.2,1140.8 M85.8,1129.6c-0.6-0.7-1.7-0.7-2.3,0l-9.7,11.1c-0.6,0.7-0.6,1.8,0,2.4l9.7,11.1
				c0.6,0.7,1.7,0.7,2.3,0c0.6-0.7,0.6-1.8,0-2.4l-8.7-9.9l8.7-9.9C86.4,1131.4,86.4,1130.3,85.8,1129.6 M97.1,1126.6
				c-0.7-0.2-1.5,0.2-1.7,1l-7.6,28.2c-0.2,0.7,0.2,1.5,1,1.7c0.7,0.2,1.5-0.2,1.7-1l7.6-28.2C98.3,1127.5,97.9,1126.8,97.1,1126.6"
				/>
		</g>
	</g>
</g>
</svg>
