<?xml version="1.0" encoding="utf-8"?>
<!-- Generator: Adobe Illustrator 23.0.1, SVG Export Plug-In . SVG Version: 6.00 Build 0)  -->
<svg version="1.1" xmlns="http://www.w3.org/2000/svg" xmlns:xlink="http://www.w3.org/1999/xlink" x="0px" y="0px"
	 viewBox="0 0 50 50" style="enable-background:new 0 0 50 50;" xml:space="preserve">
<g id="Layer_2">
	<rect x="23.6" y="17.5" style="fill:#D0A02B;" width="4.8" height="5.4"/>
</g>
<g id="Layer_1">
	<g>
		<g>
			<path style="fill:#FFFFFF;" d="M6.3,50c1.8,0,3.4-0.8,4.5-2c1.6,1.3,3.5,2,5.7,2c2.4,0,4.6-1,6.3-2.6c2.2,1.6,4.9,2.6,7.8,2.6
				c2.6,0,5.1-0.8,7.2-2.2c1.3,1.3,3.1,2.2,5,2.2c4,0,7.3-3.5,7.3-7.8c0-3.8-2.5-6.9-5.7-7.7c-0.3-7-5.2-12.7-11.4-13.8v9.1l1.8-0.4
				c0.2,0,0.5-0.1,0.7-0.1c1.8,0,3.3,1.4,3.7,3.3c0,0.1,0,0.1,0,0.2c1.3,0.7,2.3,2,2.8,3.5c-1.2-1.8-3.1-2.9-5.2-2.9
				c-2.7,0-5,1.8-5.9,4.3c0.1-0.6,0.2-1.3,0.4-1.8c-1.1-1.7-3-2.9-5.1-2.9c-1.6,0-3.1,0.7-4.3,1.8c0.1-0.1,0.2-0.2,0.2-0.3h-4h0
				c0,0-0.1,0.1-0.1,0.1c1,0.6,1.7,1.5,2.1,2.6c-0.9-1.2-2.3-1.9-3.8-1.9c-2.7,0-4.9,2.4-4.9,5.3c0,0.6,0.1,1.2,0.3,1.7
				c-0.6-0.9-1-2-1-3.2c0-1.9,0.9-3.5,2.3-4.4c-0.2-0.6-0.3-1.3-0.1-2c0.2-1.2,0.9-2.1,1.8-2.7c-3.3,0.7-6,3.3-7.1,6.7
				c-0.4-0.1-0.8-0.1-1.2-0.1c-3.5,0-6.3,3-6.3,6.8C0,47,2.8,50,6.3,50z"/>
			<path style="fill:#278240;" d="M24.8,22.9l0.3-2c0.3,0.1,0.6,0.2,0.9,0.2h0c0,0,0,0,0,0c0.3,0,0.6-0.1,0.9-0.2l0.3,2h1.8h0.6v0.7
				v6.9l2.2-0.4l0-10.6c1.6-1.4,6.1-6.2,9.7-16.9c0.3-1-0.1-2-1-2.4c-0.9-0.3-1.9,0.1-2.2,1.1c-2.1,6.2-4.4,10.1-6.2,12.5
				c-0.8,1.1-1.4,1.8-1.9,2.3l0,0h-8.3l0,0c-1.6-1.6-5.1-5.9-8.1-14.8c-0.3-1-1.3-1.5-2.2-1.1c-0.9,0.3-1.4,1.4-1,2.4
				c3.6,10.8,8.1,15.5,9.7,17v3.4H24.8z M25.9,20.3c-0.4,0-0.8-0.2-1.2-0.5l-0.1-0.1l0.4-1.7h0.8h0.8l0.4,1.7l-0.1,0.1
				C26.8,20.1,26.3,20.3,25.9,20.3z"/>
			<path style="fill:#278240;" d="M17.4,34.2v-0.5v-3.1L17,30.5c-1.4-0.3-2.8,0.7-3.1,2.3c-0.1,0.4-0.1,0.9,0.1,1.3
				c0.5-0.2,1-0.3,1.6-0.3C16.2,33.8,16.8,34,17.4,34.2z"/>
			<path style="fill:#278240;" d="M34.8,30.5l-5.3,1.1v0.9c0.9,0.5,1.7,1.2,2.3,2c1-1.5,2.7-2.4,4.5-2.4c0.5,0,0.9,0.1,1.4,0.2
				C37.3,31,36.1,30.3,34.8,30.5z"/>
			<ellipse style="fill:#D0A02B;" cx="25.9" cy="10.3" rx="4.8" ry="5.2"/>
			<path style="fill:#A09F9F;" d="M18,33.7h4.6c1.1-1.1,2.6-1.9,4.3-1.9c0.7,0,1.4,0.1,2,0.4v-8.6H18V33.7z"/>
		</g>
	</g>
</g>
</svg>
