<?xml version="1.0" standalone="no"?>
<!DOCTYPE svg PUBLIC "-//W3C//DTD SVG 20010904//EN"
 "http://www.w3.org/TR/2001/REC-SVG-20010904/DTD/svg10.dtd">
<svg version="1.0" xmlns="http://www.w3.org/2000/svg"
 width="101.000000pt" height="120.000000pt" viewBox="0 0 101.000000 120.000000"
 preserveAspectRatio="xMidYMid meet">
<metadata>
Created by potrace 1.15, written by Peter Selinger 2001-2017
</metadata>
<g transform="translate(0.000000,120.000000) scale(0.100000,-0.100000)"
fill="#000000" stroke="none">
<path d="M140 615 l0 -435 435 0 435 0 0 148 c-1 136 -2 144 -15 114 -37 -84
-115 -142 -212 -157 -107 -17 -227 42 -278 135 l-30 55 -3 288 -3 287 -165 0
-164 0 0 -435z"/>
<path d="M650 793 c0 -238 2 -260 20 -290 34 -56 119 -54 157 4 16 24 18 57
21 285 l3 258 -100 0 -101 0 0 -257z"/>
</g>
</svg>
