<?xml version="1.0" encoding="UTF-8" standalone="no"?>
<svg
   xmlns:dc="http://purl.org/dc/elements/1.1/"
   xmlns:cc="http://creativecommons.org/ns#"
   xmlns:rdf="http://www.w3.org/1999/02/22-rdf-syntax-ns#"
   xmlns:svg="http://www.w3.org/2000/svg"
   xmlns="http://www.w3.org/2000/svg"
   xmlns:sodipodi="http://sodipodi.sourceforge.net/DTD/sodipodi-0.dtd"
   xmlns:inkscape="http://www.inkscape.org/namespaces/inkscape"
   fill="#FFFFFF"
   version="1.1"
   x="0px"
   y="0px"
   viewBox="0 0 64 64"
   style="enable-background:new 0 0 64 64;"
   xml:space="preserve"
   id="svg341"
   sodipodi:docname="contact.svg"
   inkscape:version="0.92.4 (5da689c313, 2019-01-14)"><metadata
     id="metadata347"><rdf:RDF><cc:Work
         rdf:about=""><dc:format>image/svg+xml</dc:format><dc:type
           rdf:resource="http://purl.org/dc/dcmitype/StillImage" /><dc:title>001-icon-design</dc:title></cc:Work></rdf:RDF></metadata><defs
     id="defs345" /><sodipodi:namedview
     pagecolor="#ffffff"
     bordercolor="#666666"
     borderopacity="1"
     objecttolerance="10"
     gridtolerance="10"
     guidetolerance="10"
     inkscape:pageopacity="0"
     inkscape:pageshadow="2"
     inkscape:window-width="640"
     inkscape:window-height="480"
     id="namedview343"
     showgrid="false"
     inkscape:zoom="3.6875"
     inkscape:cx="32"
     inkscape:cy="32"
     inkscape:window-x="944"
     inkscape:window-y="132"
     inkscape:window-maximized="0"
     inkscape:current-layer="svg341" /><title
     id="title299">001-icon-design</title><path
     d="M22,33h17.7l4.7,3.8c0.2,0.1,0.4,0.2,0.6,0.2c0.2,0,0.3,0,0.4-0.1c0.3-0.2,0.6-0.5,0.6-0.9V16c0-0.6-0.4-1-1-1H22  c-0.6,0-1,0.4-1,1v16C21,32.6,21.4,33,22,33z M23,17h21v16.9l-3.4-2.7C40.5,31.1,40.2,31,40,31H23V17z"
     id="path301" /><path
     d="M63,9H39c-0.6,0-1,0.4-1,1v2c0,0.6,0.4,1,1,1s1-0.4,1-1v-1h22v14H49c-0.6,0-1,0.4-1,1s0.4,1,1,1h14c0.6,0,1-0.4,1-1V10  C64,9.4,63.6,9,63,9z"
     id="path303" /><path
     d="M16.8,1c-0.8,0.1-1.6,0.3-2.3,0.4C6.4,2.7,0,3.7,0,32.3s6.4,29.6,14.5,30.9c0.8,0.1,1.5,0.2,2.3,0.4H17  c0.2,0,0.5-0.1,0.6-0.2c0.2-0.2,0.4-0.5,0.4-0.8V49.3c0-0.5-0.3-0.9-0.8-1s-0.9-0.2-1.4-0.2c-0.8-0.1-1.7-0.3-2.5-0.5h-0.1  c-2.7-1-4.3-3.8-4.3-15.3s1.6-14.2,4.2-15.2l0.2-0.1c0.8-0.3,1.6-0.4,2.4-0.5l1.4-0.2c0.5-0.1,0.8-0.5,0.8-1V2c0-0.6-0.4-1-1-1  C16.9,1,16.9,1,16.8,1z M16,50.1v11.2l-1.2-0.2L14,61V49.8c0.5,0.1,1,0.2,1.6,0.3H16z M7,32.3C7,44,8.8,47.6,12,49.1v11.5  C6,59.3,2,55.5,2,32.3s4-27,10-28.4v11.5C8.8,16.9,7,20.5,7,32.3z M16,14.4l-0.5,0.1c-0.5,0.1-1.1,0.2-1.6,0.3V3.5l0.9-0.1L16,3.1  V14.4z"
     id="path305" /><path
     d="M64,41.8c0-0.1,0-0.1-0.1-0.2l0,0l-0.1-0.1c0-0.1-0.1-0.1-0.1-0.2c0,0-0.1-0.1-0.2-0.1c0,0-0.1-0.1-0.2-0.1  c-0.1,0-0.1,0-0.2,0C63,41.1,63,41,62.9,41H22h-0.1c-0.1,0-0.1,0-0.2,0s-0.1,0.1-0.2,0.1s-0.1,0.1-0.2,0.1c0,0.1-0.1,0.1-0.1,0.2  l-0.1,0.1l0,0c0,0.1,0,0.1,0,0.2c0,0.1-0.1,0.2-0.1,0.3l0,0v21c0,0.6,0.4,1,1,1h41c0.6,0,1-0.4,1-1V42C64,41.9,64,41.8,64,41.8z   M58.9,43l-16.4,8.4L26.1,43H58.9z M23,62V43.6l19,9.8c0.3,0.1,0.6,0.1,0.9,0l19-9.8V62H23z"
     id="path307" /><circle
     cx="33.5"
     cy="24.5"
     r="1.5"
     id="circle309" /><circle
     cx="28.5"
     cy="24.5"
     r="1.5"
     id="circle311" /><circle
     cx="38.5"
     cy="24.5"
     r="1.5"
     id="circle313" /><circle
     cx="51.5"
     cy="18.5"
     r="1.5"
     id="circle315" /><circle
     cx="56.5"
     cy="18.5"
     r="1.5"
     id="circle317" /><rect
     x="54"
     y="58"
     width="2"
     height="2"
     id="rect319" /><rect
     x="58"
     y="58"
     width="2"
     height="2"
     id="rect321" /><rect
     width="2"
     height="2"
     id="rect331" /><rect
     y="62"
     width="2"
     height="2"
     id="rect333" /><rect
     x="4"
     y="62"
     width="2"
     height="2"
     id="rect335" /><rect
     x="50"
     width="2"
     height="2"
     id="rect337" /></svg>