<svg xmlns="http://www.w3.org/2000/svg" xmlns:xlink="http://www.w3.org/1999/xlink" xml:space="preserve" version="1.1" style="shape-rendering:geometricPrecision;text-rendering:geometricPrecision;image-rendering:optimizeQuality;" viewBox="0 0 333 333" x="0px" y="0px" fill-rule="evenodd" clip-rule="evenodd"><defs><style type="text/css">
   
    .fil0 {fill:black}
   
  </style></defs><g><path class="fil0" d="M167 33c73,0 133,60 133,134 0,73 -60,133 -133,133 -74,0 -134,-60 -134,-133 0,-74 60,-134 134,-134zm-38 47l76 0c7,0 12,6 12,13l0 147c0,7 -5,13 -12,13l-76 0c-7,0 -13,-6 -13,-13l0 -147c0,-7 6,-13 13,-13zm38 152c4,0 8,3 8,8 0,4 -4,8 -8,8 -5,0 -8,-4 -8,-8 0,-5 3,-8 8,-8zm-43 -135l86 0 0 130 -86 0 0 -130zm31 -10l24 0c0,0 1,0 1,1l0 0c0,1 -1,2 -1,2l-24 0c-1,0 -2,-1 -2,-2l0 0c0,-1 1,-1 2,-1z"></path></g></svg>