<?xml version="1.0" encoding="utf-8"?>
<!-- Generator: Adobe Illustrator 23.0.1, SVG Export Plug-In . SVG Version: 6.00 Build 0)  -->
<svg version="1.1" id="Layer_1" xmlns="http://www.w3.org/2000/svg" xmlns:xlink="http://www.w3.org/1999/xlink" x="0px" y="0px"
	 viewBox="0 0 50 50" style="enable-background:new 0 0 50 50;" xml:space="preserve">
<g>
	<path style="fill:#FFFFFF;" d="M2.8,2.7c0.6-0.2,1.5-0.3,2.3-0.3c1.3,0,2.1,0.4,2.7,1.2c0.5,0.7,0.7,1.7,0.7,2.8
		c0,1.9-0.8,3.2-1.8,3.8v0.1c0.7,0.4,1.2,1.4,1.4,3c0.3,2.1,0.5,3.5,0.7,4H7.6c-0.2-0.4-0.4-1.7-0.6-3.5c-0.3-2-0.8-2.8-1.9-2.9H4
		v6.4H2.8V2.7z M4,9.4h1.2c1.3,0,2.1-1.1,2.1-2.8c0-1.9-0.9-2.7-2.2-2.8C4.6,3.9,4.2,3.9,4,4V9.4z"/>
	<path style="fill:#FFFFFF;" d="M11,12.3c0,2.6,1.1,3.7,2.3,3.7c0.9,0,1.4-0.2,1.9-0.5l0.2,1.4c-0.4,0.3-1.2,0.7-2.3,0.7
		c-2.1,0-3.3-2.1-3.3-5.3S11,6.4,13,6.4c2.2,0,2.8,3,2.8,5c0,0.4,0,0.7,0,0.9H11z M14.6,10.9c0-1.2-0.3-3.1-1.7-3.1
		c-1.2,0-1.8,1.8-1.9,3.1H14.6z"/>
	<path style="fill:#FFFFFF;" d="M17.1,15.3c0.4,0.4,1,0.8,1.6,0.8c0.9,0,1.3-0.7,1.3-1.6c0-0.9-0.4-1.4-1.3-1.9
		c-1.2-0.7-1.8-1.7-1.8-3c0-1.7,0.9-3.1,2.3-3.1c0.7,0,1.3,0.3,1.7,0.7l-0.3,1.4c-0.3-0.3-0.8-0.6-1.4-0.6c-0.7,0-1.1,0.7-1.1,1.4
		c0,0.9,0.4,1.3,1.3,1.8c1.2,0.7,1.8,1.6,1.8,3.2c0,1.9-0.9,3.2-2.5,3.2c-0.7,0-1.4-0.3-1.9-0.7L17.1,15.3z"/>
	<path style="fill:#FFFFFF;" d="M28.5,14.3c0,1.1,0,2.1,0.1,2.9h-1.1l-0.1-1.7h0c-0.3,0.9-1,2-2.2,2c-1.1,0-2.3-0.9-2.3-4.6V6.7H24
		v5.9c0,2,0.4,3.4,1.5,3.4c0.8,0,1.4-0.9,1.6-1.7c0.1-0.3,0.1-0.6,0.1-1V6.7h1.2V14.3z"/>
	<path style="fill:#FFFFFF;" d="M30.6,9.5c0-1.1,0-2-0.1-2.9h1.1l0.1,1.7h0c0.4-1,1-1.9,2.1-1.9c0.9,0,1.6,0.9,1.9,2.1h0
		c0.2-0.6,0.5-1,0.8-1.4c0.4-0.5,0.9-0.7,1.5-0.7c0.9,0,2.2,0.9,2.2,4.6v6.2H39v-6c0-2-0.5-3.3-1.5-3.3c-0.7,0-1.2,0.8-1.5,1.7
		c-0.1,0.3-0.1,0.6-0.1,1v6.5h-1.2v-6.3c0-1.7-0.5-2.9-1.4-2.9c-0.8,0-1.3,1-1.5,1.9c-0.1,0.3-0.1,0.6-0.1,0.9v6.4h-1.2V9.5z"/>
	<path style="fill:#FFFFFF;" d="M42.9,12.3c0,2.6,1.1,3.7,2.3,3.7c0.9,0,1.4-0.2,1.9-0.5l0.2,1.4c-0.4,0.3-1.2,0.7-2.3,0.7
		c-2.1,0-3.3-2.1-3.3-5.3s1.2-5.7,3.2-5.7c2.2,0,2.8,3,2.8,5c0,0.4,0,0.7,0,0.9H42.9z M46.5,10.9c0-1.2-0.3-3.1-1.7-3.1
		c-1.2,0-1.8,1.8-1.9,3.1H46.5z"/>
</g>
<g>
	<g transform="translate(-413 -17)">
		<path style="fill:#FFFFFF;" d="M429.4,49.6l9.1,13.5l9-13.5h-5.4V38.1h-7.3v11.5H429.4z"/>
	</g>
</g>
</svg>
